<svg width="35" height="35" viewBox="0 0 35 35" fill="none" xmlns="http://www.w3.org/2000/svg">
<path fill-rule="evenodd" clip-rule="evenodd" d="M18.6667 6.41667C18.6667 5.77234 18.1443 5.25 17.5 5.25C16.8557 5.25 16.3333 5.77234 16.3333 6.41667V16.3333H6.41667C5.77234 16.3333 5.25 16.8557 5.25 17.5C5.25 18.1443 5.77234 18.6667 6.41667 18.6667H16.3333V28.5833C16.3333 29.2276 16.8557 29.75 17.5 29.75C18.1443 29.75 18.6667 29.2276 18.6667 28.5833V18.6667H28.5833C29.2276 18.6667 29.75 18.1443 29.75 17.5C29.75 16.8557 29.2276 16.3333 28.5833 16.3333H18.6667V6.41667Z" fill="#B371D1"/>
</svg>
