<svg width="40" height="40" viewBox="0 0 40 40" fill="none" xmlns="http://www.w3.org/2000/svg">
<path fill-rule="evenodd" clip-rule="evenodd" d="M22.5197 1.62333C21.3821 -0.285415 18.6179 -0.285414 17.4802 1.62333L0.429808 30.2314C-0.735531 32.1866 0.673341 34.6666 2.94955 34.6666H37.0504C39.3267 34.6666 40.7355 32.1866 39.5701 30.2314L22.5197 1.62333ZM19.7709 2.98857C19.8743 2.81505 20.1257 2.81505 20.2291 2.98857L37.2795 31.5968C37.3856 31.7744 37.2573 32 37.0504 32H2.94955C2.74264 32 2.61454 31.7744 2.72048 31.5968L19.7709 2.98857ZM18.2051 11.9629C18.1659 10.9446 18.9809 10.0976 20 10.0976C21.0191 10.0976 21.8341 10.9446 21.7949 11.9629L21.3846 22.632C21.3559 23.376 20.7445 23.9643 20 23.9643C19.2555 23.9643 18.644 23.376 18.6154 22.632L18.2051 11.9629ZM21.9997 27.936C21.9997 29.0405 21.1043 29.936 19.9997 29.936C18.8951 29.936 17.9997 29.0405 17.9997 27.936C17.9997 26.8314 18.8951 25.9359 19.9997 25.9359C21.1043 25.9359 21.9997 26.8314 21.9997 27.936Z" fill="#F06868"/>
</svg>
