<svg width="32" height="34" viewBox="0 0 32 34" fill="none" xmlns="http://www.w3.org/2000/svg">
<path d="M12 22.3125C12 22.0307 12.1054 21.7605 12.2929 21.5612C12.4804 21.3619 12.7348 21.25 13 21.25H19C19.2652 21.25 19.5196 21.3619 19.7071 21.5612C19.8946 21.7605 20 22.0307 20 22.3125C20 22.5943 19.8946 22.8645 19.7071 23.0638C19.5196 23.2631 19.2652 23.375 19 23.375H13C12.7348 23.375 12.4804 23.2631 12.2929 23.0638C12.1054 22.8645 12 22.5943 12 22.3125ZM8 15.9375C8 15.6557 8.10536 15.3855 8.29289 15.1862C8.48043 14.9869 8.73478 14.875 9 14.875H23C23.2652 14.875 23.5196 14.9869 23.7071 15.1862C23.8946 15.3855 24 15.6557 24 15.9375C24 16.2193 23.8946 16.4895 23.7071 16.6888C23.5196 16.8881 23.2652 17 23 17H9C8.73478 17 8.48043 16.8881 8.29289 16.6888C8.10536 16.4895 8 16.2193 8 15.9375ZM4 9.5625C4 9.28071 4.10536 9.01046 4.29289 8.8112C4.48043 8.61194 4.73478 8.5 5 8.5H27C27.2652 8.5 27.5196 8.61194 27.7071 8.8112C27.8946 9.01046 28 9.28071 28 9.5625C28 9.84429 27.8946 10.1145 27.7071 10.3138C27.5196 10.5131 27.2652 10.625 27 10.625H5C4.73478 10.625 4.48043 10.5131 4.29289 10.3138C4.10536 10.1145 4 9.84429 4 9.5625Z" fill="#B371D1"/>
</svg>
