<svg width="32" height="32" viewBox="0 0 32 32" fill="none" xmlns="http://www.w3.org/2000/svg">
<path fill-rule="evenodd" clip-rule="evenodd" d="M6.1866 1.06661C6.1866 0.595331 5.80454 0.21328 5.33327 0.21328C4.86197 0.21328 4.47993 0.595331 4.47993 1.06661V2.34662H3.19993C2.72864 2.34662 2.3466 2.72866 2.3466 3.19996C2.3466 3.67123 2.72864 4.05329 3.19993 4.05329H4.47993V5.33329C4.47993 5.80456 4.86197 6.18662 5.33327 6.18662C5.80454 6.18662 6.1866 5.80456 6.1866 5.33329V4.05329H7.4666C7.93787 4.05329 8.31993 3.67123 8.31993 3.19996C8.31993 2.72866 7.93787 2.34662 7.4666 2.34662H6.1866V1.06661ZM12.5866 7.46662C12.5866 6.99533 12.2045 6.61329 11.7333 6.61329C11.262 6.61329 10.8799 6.99533 10.8799 7.46662V8.74662H9.59993C9.12864 8.74662 8.7466 9.12866 8.7466 9.59996C8.7466 10.0712 9.12864 10.4533 9.59993 10.4533H10.8799V11.7333C10.8799 12.2046 11.262 12.5866 11.7333 12.5866C12.2045 12.5866 12.5866 12.2046 12.5866 11.7333V10.4533H13.8666C14.3379 10.4533 14.7199 10.0712 14.7199 9.59996C14.7199 9.12866 14.3379 8.74662 13.8666 8.74662H12.5866V7.46662ZM4.05327 13.8666C4.05327 13.3953 3.67121 13.0133 3.19993 13.0133C2.72864 13.0133 2.3466 13.3953 2.3466 13.8666V15.1466H1.06659C0.595308 15.1466 0.213257 15.5287 0.213257 16C0.213257 16.4712 0.595308 16.8533 1.06659 16.8533H2.3466V18.1333C2.3466 18.6046 2.72864 18.9866 3.19993 18.9866C3.67121 18.9866 4.05327 18.6046 4.05327 18.1333V16.8533H5.33327C5.80454 16.8533 6.1866 16.4712 6.1866 16C6.1866 15.5287 5.80454 15.1466 5.33327 15.1466H4.05327V13.8666ZM18.2273 2.09459L17.5918 2.00872C17.1365 1.95771 16.8681 2.4864 17.1293 2.8628C17.4296 3.29555 17.7062 3.74596 17.9574 4.21216C19.0267 6.19701 19.6335 8.46788 19.6335 10.8805C19.6335 17.8603 14.5546 23.654 7.8909 24.7674C7.37568 24.8533 6.84772 24.9114 6.31481 24.9399C5.85732 24.9643 5.60486 25.5008 5.92469 25.8287C6.0704 25.9782 6.21939 26.1244 6.37154 26.2673L6.52548 26.4096L7.08015 26.8896L7.48123 27.2068L7.73962 27.399L8.13845 27.6783L8.51366 27.9232C8.77171 28.0855 9.03541 28.24 9.30466 28.3859L9.86656 28.6746L10.4224 28.9295L11.0685 29.19L11.5876 29.373C11.8733 29.4673 12.1632 29.5529 12.4556 29.6288C12.6776 29.6864 12.9017 29.7389 13.1286 29.786C13.3972 29.8417 13.6685 29.8899 13.9422 29.9302L14.6184 30.0128L15.1879 30.057C15.4589 30.0725 15.7319 30.0804 16.0068 30.0804C23.783 30.0804 30.0868 23.7766 30.0868 16.0005C30.0868 15.4676 30.0571 14.9416 29.9995 14.4241L29.921 13.8327C29.8474 13.3564 29.7499 12.8881 29.6301 12.4297C29.4854 11.8765 29.3081 11.3365 29.1006 10.8135L28.8595 10.2428L28.6948 9.8889L28.5367 9.57154C28.1979 8.91249 27.8086 8.28363 27.3732 7.68902L27.0468 7.26084L26.6225 6.75055L26.2735 6.36503L26.0183 6.10029L25.6757 5.76525L25.2019 5.33726L24.5173 4.78274L23.9963 4.40529L23.3732 3.99885L22.6871 3.60307L21.9889 3.25073L21.7467 3.13975L21.2371 2.92395L20.6462 2.70272L20.108 2.52715L19.4149 2.33576L18.8501 2.2077L18.2273 2.09459ZM22.1935 11.3072C22.1935 9.12188 21.7604 7.03635 20.9758 5.13288C25.0929 7.01856 27.9535 11.1757 27.9535 16.0005C27.9535 22.5984 22.6048 27.9471 16.0068 27.9471C14.1578 27.9471 12.4074 27.5277 10.8449 26.778C13.956 25.8007 16.663 23.9108 18.6522 21.4221C18.9432 21.8206 19.4139 22.0794 19.9451 22.0794C20.8288 22.0794 21.5451 21.363 21.5451 20.4794C21.5451 19.7175 21.0126 19.08 20.2994 18.9187C20.4318 18.6702 20.5579 18.4178 20.6775 18.1617C21.0849 18.4141 21.5654 18.5599 22.08 18.5599C23.5526 18.5599 24.7466 17.3659 24.7466 15.8932C24.7466 14.4208 23.5533 13.2272 22.081 13.2265C22.1553 12.5971 22.1935 11.9566 22.1935 11.3072Z" fill="#46A4D9"/>
</svg>
