<svg width="36" height="36" viewBox="0 0 36 36" fill="none" xmlns="http://www.w3.org/2000/svg">
<path fill-rule="evenodd" clip-rule="evenodd" d="M28.4486 2.75147C27.9799 2.28283 27.2201 2.28283 26.7516 2.75147L8.91492 20.5881C8.69901 20.804 8.52631 21.0591 8.40602 21.3397L4.89705 29.5272C4.70375 29.9784 4.80453 30.5016 5.1515 30.8486C5.49847 31.1954 6.02171 31.2962 6.47272 31.103L14.6603 27.594C14.941 27.4738 15.1961 27.3009 15.412 27.0852L33.2486 9.24851C33.7171 8.77989 33.7171 8.0201 33.2486 7.55147L28.4486 2.75147ZM10.612 22.2851L27.6 5.29706L30.703 8.39999L13.7149 25.3881L10.1262 26.9261L9.07394 25.8739L10.612 22.2851Z" fill="#B371D1"/>
</svg>
