<svg width="38" height="38" viewBox="0 0 38 38" fill="none" xmlns="http://www.w3.org/2000/svg">
<path fill-rule="evenodd" clip-rule="evenodd" d="M30.7709 2.90433C31.2656 2.40966 32.0677 2.40966 32.5622 2.90433L37.6288 7.971C38.1236 8.46566 38.1236 9.26766 37.6288 9.76232L27.6409 19.7503C27.4484 19.9428 27.226 20.1031 26.9825 20.2249L17.0331 25.1996C16.5454 25.4435 15.9565 25.3478 15.5709 24.9623C15.1854 24.5768 15.0898 23.9878 15.3337 23.5002L20.3084 13.5507C20.4302 13.3072 20.5904 13.0848 20.7829 12.8923L30.7709 2.90433ZM31.6667 5.59134L22.5743 14.6836L19.9441 19.9441L20.5892 20.5892L25.8496 17.959L34.942 8.86666L31.6667 5.59134ZM25.3333 5.06666L22.7999 7.59999H12.4133C11.3283 7.59999 10.5907 7.60098 10.0206 7.64754C9.4653 7.69291 9.18132 7.77517 8.98321 7.8761C8.50654 8.11899 8.11899 8.50654 7.87609 8.98322C7.77516 9.18132 7.69293 9.46531 7.64756 10.0206C7.60097 10.5907 7.59998 11.3283 7.59998 12.4133V28.12C7.59998 29.205 7.60097 29.9425 7.64756 30.5127C7.69293 31.068 7.77516 31.352 7.87609 31.5501C8.11899 32.0269 8.50654 32.4142 8.98321 32.6572C9.18132 32.7583 9.4653 32.8403 10.0206 32.8857C10.5907 32.9323 11.3283 32.9333 12.4133 32.9333H28.12C29.205 32.9333 29.9425 32.9323 30.5127 32.8857C31.068 32.8403 31.352 32.7583 31.5501 32.6572C32.0269 32.4142 32.4142 32.0269 32.6572 31.5501C32.7583 31.352 32.8403 31.068 32.8857 30.5127C32.9323 29.9425 32.9333 29.205 32.9333 28.12V17.7333L35.4667 15.1999V28.12V28.1724C35.4667 29.1918 35.4666 30.0334 35.4107 30.7189C35.3524 31.4311 35.2278 32.0854 34.9144 32.7003C34.4287 33.6535 33.6535 34.4287 32.7003 34.9144C32.0854 35.2278 31.4311 35.3524 30.7189 35.4107C30.0334 35.4667 29.1918 35.4667 28.1724 35.4667H28.12H12.4133H12.361C11.3414 35.4667 10.4998 35.4667 9.81435 35.4107C9.10235 35.3524 8.44787 35.2278 7.8331 34.9144C6.87976 34.4287 6.10463 33.6535 5.61889 32.7003C5.30565 32.0854 5.1808 31.4311 5.12264 30.7189C5.06663 30.0334 5.06663 29.1918 5.06665 28.1724V28.12V12.4133V12.361C5.06663 11.3414 5.06663 10.4998 5.12264 9.81435C5.1808 9.10236 5.30565 8.44787 5.61889 7.83311C6.10463 6.87974 6.87976 6.10464 7.8331 5.6189C8.44787 5.30565 9.10235 5.18081 9.81435 5.12264C10.4998 5.06663 11.3413 5.06663 12.3609 5.06666H12.4133H25.3333Z" fill="#B371D1"/>
</svg>
