<svg width="32" height="32" viewBox="0 0 32 32" fill="none" xmlns="http://www.w3.org/2000/svg">
<path fill-rule="evenodd" clip-rule="evenodd" d="M21.3333 13.8667C21.3333 17.9904 17.9903 21.3333 13.8666 21.3333C9.74287 21.3333 6.39993 17.9904 6.39993 13.8667C6.39993 9.74293 9.74287 6.4 13.8666 6.4C17.9903 6.4 21.3333 9.74293 21.3333 13.8667ZM19.8588 21.3672C18.2165 22.6812 16.1333 23.4667 13.8666 23.4667C8.56467 23.4667 4.2666 19.1686 4.2666 13.8667C4.2666 8.56473 8.56467 4.26666 13.8666 4.26666C19.1685 4.26666 23.4666 8.56473 23.4666 13.8667C23.4666 16.1334 22.6811 18.2166 21.3672 19.8589L27.4209 25.9123C27.8374 26.329 27.8374 27.0044 27.4209 27.421C27.0043 27.8374 26.3289 27.8374 25.9123 27.421L19.8588 21.3672Z" fill="#B371D1"/>
</svg>
