<svg width="25" height="25" viewBox="0 0 25 25" fill="none" xmlns="http://www.w3.org/2000/svg">
<g clip-path="url(#clip0_17_2)">
<path fill-rule="evenodd" clip-rule="evenodd" d="M12.5 0C12.9602 0 13.3333 0.373097 13.3333 0.833333V4.16667C13.3333 4.6269 12.9602 5 12.5 5C12.0398 5 11.6667 4.6269 11.6667 4.16667V0.833333C11.6667 0.373097 12.0398 0 12.5 0ZM3.66117 3.66117C3.9866 3.33573 4.51423 3.33573 4.83968 3.66117L7.1967 6.01818C7.52213 6.34362 7.52213 6.87127 7.1967 7.1967C6.87127 7.52213 6.34362 7.52213 6.01818 7.1967L3.66117 4.83968C3.33573 4.51423 3.33573 3.9866 3.66117 3.66117ZM0.833333 11.6667C0.373097 11.6667 0 12.0398 0 12.5C0 12.9602 0.373097 13.3333 0.833333 13.3333H4.16667C4.6269 13.3333 5 12.9602 5 12.5C5 12.0398 4.6269 11.6667 4.16667 11.6667H0.833333ZM3.66117 21.3388C3.33573 21.0133 3.33573 20.4858 3.66117 20.1603L6.01818 17.8033C6.34362 17.4778 6.87127 17.4778 7.1967 17.8033C7.52213 18.1287 7.52213 18.6563 7.1967 18.9818L4.83968 21.3388C4.51423 21.6643 3.9866 21.6643 3.66117 21.3388ZM20.8333 11.6667C20.3732 11.6667 20 12.0398 20 12.5C20 12.9602 20.3732 13.3333 20.8333 13.3333H24.1667C24.6268 13.3333 25 12.9602 25 12.5C25 12.0398 24.6268 11.6667 24.1667 11.6667H20.8333ZM17.8033 7.1967C17.4778 6.87127 17.4778 6.34362 17.8033 6.01818L20.1603 3.66117C20.4858 3.33573 21.0133 3.33573 21.3388 3.66117C21.6643 3.9866 21.6643 4.51423 21.3388 4.83968L18.9818 7.1967C18.6563 7.52213 18.1287 7.52213 17.8033 7.1967ZM13.3333 20.8333C13.3333 20.3732 12.9602 20 12.5 20C12.0398 20 11.6667 20.3732 11.6667 20.8333V24.1667C11.6667 24.6268 12.0398 25 12.5 25C12.9602 25 13.3333 24.6268 13.3333 24.1667V20.8333ZM17.8033 17.8033C18.1287 17.4778 18.6563 17.4778 18.9818 17.8033L21.3388 20.1603C21.6643 20.4858 21.6643 21.0133 21.3388 21.3388C21.0133 21.6643 20.4858 21.6643 20.1603 21.3388L17.8033 18.9818C17.4778 18.6563 17.4778 18.1287 17.8033 17.8033ZM9.16667 12.5C9.16667 10.659 10.659 9.16667 12.5 9.16667C14.3409 9.16667 15.8333 10.659 15.8333 12.5C15.8333 14.3409 14.3409 15.8333 12.5 15.8333C10.659 15.8333 9.16667 14.3409 9.16667 12.5ZM12.5 7.5C9.73858 7.5 7.5 9.73858 7.5 12.5C7.5 15.2614 9.73858 17.5 12.5 17.5C15.2614 17.5 17.5 15.2614 17.5 12.5C17.5 9.73858 15.2614 7.5 12.5 7.5Z" fill="white"/>
</g>
<defs>
<clipPath id="clip0_17_2">
<rect width="25" height="25" fill="white"/>
</clipPath>
</defs>
</svg>
