<svg width="29" height="29" viewBox="0 0 29 29" fill="none" xmlns="http://www.w3.org/2000/svg">
<path fill-rule="evenodd" clip-rule="evenodd" d="M7.00845 14.5C7.00845 15.7012 6.03467 16.675 4.83345 16.675C3.63223 16.675 2.65845 15.7012 2.65845 14.5C2.65845 13.2988 3.63223 12.325 4.83345 12.325C6.03467 12.325 7.00845 13.2988 7.00845 14.5ZM16.6751 14.5C16.6751 15.7012 15.7013 16.675 14.5001 16.675C13.2989 16.675 12.3251 15.7012 12.3251 14.5C12.3251 13.2988 13.2989 12.325 14.5001 12.325C15.7013 12.325 16.6751 13.2988 16.6751 14.5ZM24.1668 16.675C25.368 16.675 26.3418 15.7012 26.3418 14.5C26.3418 13.2988 25.368 12.325 24.1668 12.325C22.9656 12.325 21.9918 13.2988 21.9918 14.5C21.9918 15.7012 22.9656 16.675 24.1668 16.675Z" fill="#B371D1"/>
</svg>
