<svg width="35" height="35" viewBox="0 0 35 35" fill="none" xmlns="http://www.w3.org/2000/svg">
<path fill-rule="evenodd" clip-rule="evenodd" d="M12.8333 2.33333C12.189 2.33333 11.6667 2.85567 11.6667 3.49999C11.6667 4.14432 12.189 4.66666 12.8333 4.66666H22.1667C22.811 4.66666 23.3333 4.14432 23.3333 3.49999C23.3333 2.85567 22.811 2.33333 22.1667 2.33333H12.8333ZM7 8.16666C7 7.52233 7.52234 6.99999 8.16667 6.99999H11.6667H23.3333H26.8333C27.4776 6.99999 28 7.52233 28 8.16666C28 8.81099 27.4776 9.33333 26.8333 9.33333H25.6667V28C25.6667 29.2887 24.622 30.3333 23.3333 30.3333H11.6667C10.378 30.3333 9.33333 29.2887 9.33333 28V9.33333H8.16667C7.52234 9.33333 7 8.81099 7 8.16666ZM11.6667 9.33333H23.3333V28H11.6667V9.33333Z" fill="#F06868"/>
</svg>
