<svg width="57" height="57" viewBox="0 0 57 57" fill="none" xmlns="http://www.w3.org/2000/svg">
<path fill-rule="evenodd" clip-rule="evenodd" d="M3.33289 28.499C3.33289 14.5998 14.6004 3.33221 28.4997 3.33221C42.3989 3.33221 53.6663 14.5998 53.6663 28.499C53.6663 42.3981 42.3989 53.6659 28.4997 53.6659C14.6004 53.6659 3.33289 42.3981 3.33289 28.499ZM28.4997 6.94221C16.5942 6.94221 6.9429 16.5935 6.9429 28.499C6.9429 40.4043 16.5942 50.0559 28.4997 50.0559C40.405 50.0559 50.0563 40.4043 50.0563 28.499C50.0563 16.5935 40.405 6.94221 28.4997 6.94221ZM31.3497 39.9C31.3497 41.474 30.0737 42.75 28.4997 42.75C26.9257 42.75 25.6497 41.474 25.6497 39.9C25.6497 38.3261 26.9257 37.05 28.4997 37.05C30.0737 37.05 31.3497 38.3261 31.3497 39.9ZM22.9901 23.75C22.9901 21.174 25.2134 18.715 28.5001 18.715C31.7868 18.715 34.0101 21.174 34.0101 23.75C34.0101 25.6165 32.9841 26.5701 31.215 27.6448C31.0175 27.7648 30.7898 27.897 30.5462 28.0385C29.85 28.4428 29.0239 28.9225 28.4031 29.4063C27.4821 30.1238 26.4101 31.2815 26.4101 33.06C26.4102 34.2143 27.3459 35.15 28.5002 35.15C29.6491 35.15 30.5816 34.2229 30.5901 33.0759L30.5921 33.0726C30.6251 33.0205 30.7227 32.898 30.9722 32.7036C31.3579 32.4031 31.7873 32.1542 32.3595 31.8226C32.6579 31.6497 32.9952 31.4542 33.3852 31.2173C35.4162 29.9835 38.19 27.9445 38.19 23.75C38.19 18.726 33.9534 14.535 28.5001 14.535C23.0468 14.535 18.8101 18.726 18.8101 23.75C18.8101 24.9043 19.7459 25.84 20.9001 25.84C22.0544 25.84 22.9901 24.9043 22.9901 23.75Z" fill="#B371D1"/>
</svg>
