<svg width="44" height="44" viewBox="0 0 44 44" fill="none" xmlns="http://www.w3.org/2000/svg">
<path fill-rule="evenodd" clip-rule="evenodd" d="M37.7039 8.37042C38.2765 7.79766 38.2765 6.86903 37.7039 6.29626C37.131 5.72347 36.2023 5.72347 35.6294 6.29626L22 19.9258L8.37039 6.29626C7.79763 5.72347 6.86899 5.72347 6.29623 6.29626C5.72344 6.86903 5.72344 7.79766 6.29623 8.37042L19.9258 22L6.29623 35.6295C5.72344 36.2023 5.72344 37.131 6.29623 37.7039C6.86899 38.2765 7.79763 38.2765 8.37039 37.7039L22 24.0742L35.6294 37.7039C36.2023 38.2765 37.131 38.2765 37.7039 37.7039C38.2765 37.131 38.2765 36.2023 37.7039 35.6295L24.0742 22L37.7039 8.37042Z" fill="white"/>
</svg>
